#!OML:ASF F:\VICON\USERDATA\INSTALL\rory3\rory3.ASF
:FULLY-SPECIFIED
:DEGREES
2828
root 0.32013 17.4849 -0.250017 4.68726 3.56495 -1.46797
lowerback -1.59106 -0.221651 -0.468328
upperback -3.47978 -0.266893 1.31267
thorax -2.67069 -0.10112 1.61247
lowerneck -16.6447 -11.4993 -14.8746
upperneck 30.4778 -17.1661 13.3402
head 16.3248 -7.4018 4.71379
rclavicle 2.65874e-015 1.13307e-014
rhumerus -29.5019 3.98149 -70.5304
rradius 45.1292
rwrist -6.73131
rhand -6.59699 13.6206
rfingers 7.12502
rthumb 19.2584 -15.4458
lclavicle 2.65874e-015 1.13307e-014
lhumerus -31.082 -30.3095 98.9969
lradius 62.5915
lwrist 14.9249
lhand -1.75386 24.0027
lfingers 7.12502
lthumb 23.9095 52.5343
rfemur 0 0 0
rtibia 0
rfoot 0 0
rtoes 0
lfemur -6.35715 -19.7995 -17.0639
ltibia 15.195
lfoot -13.4914 14.0075
ltoes -16.8066
2829
root 0.322477 17.4861 -0.259345 4.66587 3.59981 -1.41278
lowerback -1.53857 -0.260999 -0.55839
upperback -3.5127 -0.319819 1.28689
thorax -2.73228 -0.125079 1.63739
lowerneck -16.4527 -11.4698 -14.9064
upperneck 30.5088 -17.1942 13.467
head 16.3236 -7.41259 4.77898
rclavicle -8.26199e-016 -1.86858e-014
rhumerus -28.6369 4.82121 -69.6322
rradius 47.1933
rwrist -7.96905
rhand -7.20133 13.7496
rfingers 7.12502
rthumb 18.6772 -15.3738
lclavicle -8.26199e-016 -1.86858e-014
lhumerus -30.3061 -31.0006 98.4688
lradius 65.0813
lwrist 15.3738
lhand -1.46051 23.8839
lfingers 7.12502
lthumb 24.1907 52.3783
rfemur 0 0 0
rtibia 0
rfoot 0 0
rtoes 0
lfemur -6.40793 -19.7927 -17.1221
ltibia 15.2514
lfoot -13.4172 13.9691
ltoes -16.6592
2830
root 0.327386 17.486 -0.266128 4.58728 3.55062 -1.40954
lowerback -1.37789 -0.255065 -0.520557
upperback -3.57647 -0.31243 1.23081
thorax -2.88921 -0.122009 1.55973
lowerneck -16.3075 -11.4557 -14.9036
upperneck 30.6373 -17.255 13.5555
head 16.379 -7.43389 4.81615
rclavicle -5.05037e-015 -4.96962e-016
rhumerus -27.7428 5.70192 -68.7582
rradius 49.365
rwrist -9.27993
rhand -7.31689 13.557
rfingers 7.12502
rthumb 18.566 -15.577
lclavicle -5.05037e-015 -4.96962e-016
lhumerus -29.6751 -31.6743 97.943
lradius 67.6162
lwrist 15.7557
lhand -1.18296 23.7105
lfingers 7.12502
lthumb 24.4568 52.1692
rfemur 0 0 0
rtibia 0
rfoot 0 0
rtoes 0
lfemur -6.34767 -19.7676 -17.1719
ltibia 15.2676
lfoot -13.295 13.9877
ltoes -16.5236
2831
root 0.333114 17.4854 -0.271558 4.53025 3.47687 -1.44709
lowerback -1.21856 -0.25747 -0.385097
upperback -3.67236 -0.315774 1.15406
thorax -3.07891 -0.127248 1.40634
lowerneck -16.2036 -11.4406 -14.8407
upperneck 30.8693 -17.3211 13.574
head 16.4797 -7.45545 4.81417
rclavicle -7.66563e-015 6.55989e-015
rhumerus -26.8491 6.75486 -67.9401
rradius 51.6967
rwrist -10.5855
rhand -6.92352 13.3726
rfingers 7.12502
rthumb 18.9444 -15.7248
lclavicle -7.66563e-015 6.55989e-015
lhumerus -29.0726 -32.3116 97.3796
lradius 70.1476
lwrist 16.0312
lhand -1.11206 23.3927
lfingers 7.12502
lthumb 24.5248 51.8422
rfemur 0 0 0
rtibia 0
rfoot 0 0
rtoes 0
lfemur -6.2934 -19.7096 -17.1765
ltibia 15.2695
lfoot -13.1368 14.0371
ltoes -17.1247
2832
root 0.337187 17.4856 -0.275781 4.50959 3.49031 -1.40727
lowerback -1.18426 -0.311251 -0.380808
upperback -3.71782 -0.388536 1.10073
thorax -3.14361 -0.1641 1.35067
lowerneck -16.1142 -11.4149 -14.8337
upperneck 31.0123 -17.3428 13.6176
head 16.5411 -7.46255 4.83862
rclavicle -4.55962e-015 -1.33186e-014
rhumerus -25.7694 7.65542 -67.0167
rradius 54.0021
rwrist -11.3635
rhand -6.08975 13.5691
rfingers 7.12502
rthumb 19.7461 -15.448
lclavicle -4.55962e-015 -1.33186e-014
lhumerus -28.1868 -32.8186 96.7249
lradius 72.6048
lwrist 16.0847
lhand -1.08883 23.2805
lfingers 7.12502
lthumb 24.5471 51.7269
rfemur 0 0 0
rtibia 0
rfoot 0 0
rtoes 0
lfemur -6.30578 -19.618 -17.2355
ltibia 15.3002
lfoot -13.0874 13.9355
ltoes -17.4794
2833
root 0.341575 17.4856 -0.279876 4.51623 3.49764 -1.41291
lowerback -1.21668 -0.341803 -0.295796
upperback -3.73912 -0.430044 1.04485
thorax -3.14718 -0.188152 1.24606
lowerneck -16.0814 -11.4128 -14.8343
upperneck 31.1781 -17.395 13.6607
head 16.6353 -7.47957 4.85543
rclavicle 4.3919e-015 7.65321e-015
rhumerus -24.6048 8.45841 -66.0521
rradius 56.3701
rwrist -12.0322
rhand -5.52376 13.7424
rfingers 7.12502
rthumb 20.2901 -15.2178
lclavicle 4.3919e-015 7.65321e-015
lhumerus -27.1803 -33.3197 96.039
lradius 74.9759
lwrist 15.9746
lhand -1.34668 23.1805
lfingers 7.12502
lthumb 24.2999 51.6603
rfemur 0 0 0
rtibia 0
rfoot 0 0
rtoes 0
lfemur -6.36118 -19.5689 -17.2331
ltibia 15.3569
lfoot -13.1562 13.869
ltoes -17.2902
2834
root 0.346901 17.4868 -0.285019 4.49628 3.33249 -1.45475
lowerback -1.19797 -0.31218 -0.142406
upperback -3.79025 -0.390591 0.98048
thorax -3.21285 -0.173642 1.09374
lowerneck -15.9935 -11.3916 -14.7921
upperneck 31.3705 -17.4146 13.6304
head 16.7068 -7.4895 4.8437
rclavicle 2.91654e-015 3.77691e-015
rhumerus -23.4849 9.41858 -65.1191
rradius 58.8537
rwrist -12.7986
rhand -5.4019 13.7376
rfingers 7.12502
rthumb 20.4072 -15.2101
lclavicle 2.91654e-015 3.77691e-015
lhumerus -26.122 -33.7408 95.3873
lradius 77.0516
lwrist 15.7999
lhand -1.91316 22.888
lfingers 7.12502
lthumb 23.7567 51.4395
rfemur 0 0 0
rtibia 0
rfoot 0 0
rtoes 0
lfemur -6.3494 -19.4855 -17.2299
ltibia 15.3933
lfoot -13.2137 13.9449
ltoes -17.1877
2835
root 0.353611 17.4867 -0.28902 4.3854 3.14528 -1.53383
lowerback -1.13396 -0.287667 0.0759578
upperback -3.80708 -0.357176 0.924236
thorax -3.26857 -0.164285 0.913517
lowerneck -15.8645 -11.3503 -14.7778
upperneck 31.5041 -17.4034 13.6382
head 16.7414 -7.48881 4.86034
rclavicle -7.03511e-015 -5.86415e-015
rhumerus -22.285 10.4001 -64.1753
rradius 61.3412
rwrist -13.4116
rhand -5.24613 13.6236
rfingers 7.12502
rthumb 20.5569 -15.3079
lclavicle -7.03511e-015 -5.86415e-015
lhumerus -24.7398 -34.4871 94.6395
lradius 78.8088
lwrist 15.7669
lhand -2.45418 22.3869
lfingers 7.12502
lthumb 23.2377 51.0048
rfemur 0 0 0
rtibia 0
rfoot 0 0
rtoes 0
lfemur -6.22863 -19.4365 -17.2273
ltibia 15.4378
lfoot -13.3491 14.1171
ltoes -17.249
2836
root 0.357286 17.4856 -0.28831 4.27799 3.13943 -1.53916
lowerback -1.20034 -0.322575 0.133128
upperback -3.75481 -0.405263 0.884459
thorax -3.1769 -0.190981 0.840621
lowerneck -15.8044 -11.3174 -14.6911
upperneck 31.6092 -17.3844 13.5767
head 16.7564 -7.48051 4.83084
rclavicle 2.00338e-015 3.97569e-015
rhumerus -20.8332 11.3062 -63.1504
rradius 63.7337
rwrist -14.0337
rhand -5.15233 13.6289
rfingers 7.12502
rthumb 20.647 -15.2929
lclavicle 2.00338e-015 3.97569e-015
lhumerus -23.1531 -35.2665 93.8337
lradius 80.4869
lwrist 15.7334
lhand -2.55184 22.0296
lfingers 7.12502
lthumb 23.144 50.6594
rfemur 0 0 0
rtibia 0
rfoot 0 0
rtoes 0
lfemur -6.10531 -19.3982 -17.2777
ltibia 15.4708
lfoot -13.4643 14.1635
ltoes -17.4316
